<svg xmlns="http://www.w3.org/2000/svg" viewBox="0 0 1440 320">
    <path fill="#ff5500" fill-opacity="0.7" d="M0,256L26.7,245.3C53.3,235,107,213,160,197.3C213.3,181,267,171,320,160C373.3,149,427,139,480,154.7C533.3,171,587,213,640,234.7C693.3,256,747,256,800,250.7C853.3,245,907,235,960,240C1013.3,245,1067,267,1120,256C1173.3,245,1227,203,1280,186.7C1333.3,171,1387,181,1413,186.7L1440,192L1440,0L1413.3,0C1386.7,0,1333,0,1280,0C1226.7,0,1173,0,1120,0C1066.7,0,1013,0,960,0C906.7,0,853,0,800,0C746.7,0,693,0,640,0C586.7,0,533,0,480,0C426.7,0,373,0,320,0C266.7,0,213,0,160,0C106.7,0,53,0,27,0L0,0Z"></path>
  </svg>