<svg xmlns="http://www.w3.org/2000/svg" viewBox="0 0 876.26 855.83">
  <defs>
    <style>
      .a {
        fill: #e8e8e8;
      }
    </style>
  </defs>
  <title>xblogs</title>
  <g>
    <path class="a" d="M167.25,596.58H218q26,0,37.92,12.08t11.93,37.16v8.56q0,16.51-5.35,26.92a31.34,31.34,0,0,1-16.36,15v.62q25.07,8.57,25.08,44.65V759.9q0,24.76-13,37.77t-38.08,13H167.25Zm46.8,87.16q10.08,0,15.13-5.2t5-17.43V649.19q0-11.62-4.13-16.82t-13-5.2H200.89v56.57Zm6.11,96.34q8.86,0,13.15-4.74T237.59,759V740.32q0-14.67-5-20.33t-16.67-5.66h-15v65.75Z"/>
    <path class="a" d="M290.81,596.58h33.64v183.5H379.8v30.58h-89Z"/>
    <path class="a" d="M405.49,799.65q-13.15-14.05-13.15-39.75V647.35q0-25.7,13.15-39.76t37.92-14.07q24.78,0,37.93,14.07t13.15,39.76V759.9q0,25.68-13.15,39.75t-37.93,14.07Q418.65,813.72,405.49,799.65ZM460.85,762V645.21q0-21.11-17.44-21.1T426,645.21V762q0,21.11,17.43,21.1T460.85,762Z"/>
    <path class="a" d="M527.52,799.81q-12.85-13.92-12.85-39.91V647.35q0-26,12.85-39.91t37.31-13.92q24.46,0,37.31,13.92T615,647.35V665.7h-31.8V645.21q0-21.11-17.44-21.1t-17.43,21.1V762.34q0,20.8,17.43,20.8t17.44-20.8v-41.9H566.36V689.86H615v70q0,26-12.84,39.91t-37.31,13.91Q540.35,813.72,527.52,799.81Z"/>
    <path class="a" d="M643.42,799.81q-12.54-13.92-12.54-39.91V747.66h31.81v14.68q0,20.8,17.43,20.8,8.57,0,13-5t4.44-16.36a45.42,45.42,0,0,0-6.12-23.7q-6.12-10.24-22.63-24.62-20.8-18.35-29.06-33.18t-8.25-33.49q0-25.38,12.84-39.3t37.31-13.92q24.17,0,36.55,13.92t12.38,39.91v8.87h-31.8v-11q0-11-4.28-16.06t-12.54-5q-16.83,0-16.82,20.49a40.31,40.31,0,0,0,6.27,21.71q6.26,10.1,22.78,24.47,21.1,18.35,29,33.33t8,35.17q0,26.31-13,40.37t-37.77,14.07Q656,813.72,643.42,799.81Z"/>
  </g>
  <path class="a" d="M154.72,0V583.21h583.2V0ZM440.64,366.38c-23.68,17.77-48.14,36.14-52.19,41.71-.05,1.23-.15,3.11-.32,5.77-.47,7.87-1.37,22.51-1.37,38.47,0,45.46,7.72,71.52,21.19,71.52,24.34,0,58.05-35.29,93.75-72.67,5.52-5.76,11.12-11.64,16.81-17.5,1.79-1.94,3.24-3.64,4.44-5,3.56-4.15,6.37-7.44,11.55-7.44,6,0,10.36,4,10.36,9.51a8.09,8.09,0,0,1-1.2,4.22,14.2,14.2,0,0,1-2.58,3.47,7.09,7.09,0,0,0-.61.71c-.22.25-.43.51-.69.76-12.87,12.45-24.7,25-36.12,37-35,37-62.59,66.26-94,66.26-23.14,0-50.74-15.85-50.74-91.4,0-8.53.36-16.27.68-22.21-26.24,18.65-98.63,73.93-130.9,99.8a6.28,6.28,0,0,1,1.94,2.92,6.7,6.7,0,0,1,.6,2.79c0,2.63,0,6.23-17.69,16.65-7.48,4.39-17.71,9.65-24,9.65s-14.92-4.19-14.92-12.08c0-11.19,29.43-35,117.88-100.89,30.18-22.49,64.26-47.85,69.67-54.31,3.71-36.93,10.95-75.29,17.37-109.18,6-31.73,11.19-59.14,11.19-74.27a26.46,26.46,0,0,0-.81-7.72c-11.23,1.84-43.73,26.84-76.9,63.37-37.31,41.13-60.5,80-60.5,101.59,0,7.69,1.26,8.95,9,8.95,13.43,0,39.94-10,51.26-14.28l2.51-.93a15.75,15.75,0,0,1,6.22-1.28h1.13a6.4,6.4,0,0,1,6.4,6.39c0,3.52,0,7.48-27.77,17.41-7.74,2.75-27.09,9.19-39.75,9.19-18.52,0-29.13-10.32-29.13-28.3,0-28,23.29-70.14,62.33-112.83,28.05-30.65,69.76-66.45,95-66.45,20.05,0,20.05,24.29,20.05,32.26,0,17.22-4.79,49.49-9.85,83.68-4.07,27.36-8.24,55.51-9.44,73.54,17.52-11.78,59.63-40.83,101.58-73.78C581.81,231,595.2,202.55,595.2,191.87a3,3,0,0,0-.41-1.72l-.55-.58a6.35,6.35,0,0,1-1.88-4.52,6.58,6.58,0,0,1,3.35-5.86,7.1,7.1,0,0,1,4.17-1.38h.3a6.32,6.32,0,0,1,2.58.55c5.78,2.56,8.36,7.33,8.36,15.5C611.12,235,530.47,299,440.64,366.38ZM689.69,562A13.06,13.06,0,1,1,702.76,549,13.06,13.06,0,0,1,689.69,562Z"/>
</svg>
